<svg width="48" height="48" viewBox="0 0 48 48" fill="none" xmlns="http://www.w3.org/2000/svg">
<path d="M32 32L24 24L16 32" stroke="black" stroke-width="2" stroke-linecap="round" stroke-linejoin="round"/>
<path d="M24 24V42" stroke="#2F80ED" stroke-width="2" stroke-linecap="round" stroke-linejoin="round"/>
<path d="M40.7804 36.78C42.7311 35.7165 44.2721 34.0337 45.1602 31.9972C46.0482 29.9607 46.2328 27.6864 45.6848 25.5334C45.1368 23.3803 43.8874 21.471 42.1338 20.1069C40.3801 18.7427 38.2221 18.0014 36.0004 18H33.4804C32.875 15.6585 31.7467 13.4846 30.1803 11.642C28.6139 9.79927 26.6501 8.33567 24.4366 7.36118C22.2231 6.3867 19.8175 5.92669 17.4006 6.01573C14.9838 6.10478 12.6185 6.74057 10.4828 7.8753C8.34698 9.01003 6.49623 10.6142 5.06965 12.5671C3.64307 14.5201 2.67779 16.771 2.24637 19.1508C1.81495 21.5305 1.92862 23.977 2.57884 26.3065C3.22905 28.636 4.39889 30.7877 6.00041 32.6" stroke="black" stroke-width="2" stroke-linecap="round" stroke-linejoin="round"/>
<path d="M32 32L24 24L16 32" stroke="#2F80ED" stroke-width="2" stroke-linecap="round" stroke-linejoin="round"/>
</svg>
