<svg width="431" height="321" viewBox="0 0 431 321" fill="none" xmlns="http://www.w3.org/2000/svg">
<rect width="431" height="321" rx="10" fill="#F7F7F8"/>
<circle opacity="0.5" r="24" transform="matrix(0 -1 -1 0 215 160)" fill="white"/>
<path d="M226 167C226 167.53 225.789 168.039 225.414 168.414C225.039 168.789 224.53 169 224 169H206C205.47 169 204.961 168.789 204.586 168.414C204.211 168.039 204 167.53 204 167V156C204 155.47 204.211 154.961 204.586 154.586C204.961 154.211 205.47 154 206 154H210L212 151H218L220 154H224C224.53 154 225.039 154.211 225.414 154.586C225.789 154.961 226 155.47 226 156V167Z" stroke="#61A199" stroke-width="2" stroke-linecap="round" stroke-linejoin="round"/>
<path d="M215 165C217.209 165 219 163.209 219 161C219 158.791 217.209 157 215 157C212.791 157 211 158.791 211 161C211 163.209 212.791 165 215 165Z" stroke="#61A199" stroke-width="2" stroke-linecap="round" stroke-linejoin="round"/>
</svg>
